# xmcd
#
# Track frame offsets: 
#        150
#        18298
#        35073
#        52602
#        65981
#        79961
#        94031
#        105662
#        119432
#        134101
#
# Disc length: 1987 seconds
#
# Revision: 0
# Processed by: cddbd v1.5.2PL0 Copyright (c) Steve Scherf et al.
# Submitted via: ExactAudioCopyFreeDBPlugin 1.0
#
DISCID=8a07c10a
DTITLE=Ozark Mountain Daredevils - Sing Their Best
DYEAR=2006
DGENRE=Country
TTITLE0=Jackie Blue
TTITLE1=If You Wanna Get to Heaven
TTITLE2=You Made it Right
TTITLE3=Black Sky
TTITLE4=It'll Shine When it Shines
TTITLE5=Country Girl
TTITLE6=Homemade Wine
TTITLE7=Chicken Train
TTITLE8=Fly Away Home
TTITLE9=Walkin' Down the Road
EXTD=
EXTT0=
EXTT1=
EXTT2=
EXTT3=
EXTT4=
EXTT5=
EXTT6=
EXTT7=
EXTT8=
EXTT9=
PLAYORDER=
